<svg xmlns="http://www.w3.org/2000/svg" width="60" height="60" viewBox="0 0 60 60">
  <g id="Group_2305" data-name="Group 2305" transform="translate(-1573.94 -12451.664)">
    <path id="Path_1872" data-name="Path 1872" d="M96.94,95.664a30,30,0,1,1-30-30,30,30,0,0,1,30,30" transform="translate(1537 12386)" fill="#dc4335"/>
    <path id="Path_1873" data-name="Path 1873" d="M60.321,95.509v5.172h8.555c-.345,2.219-2.587,6.507-8.555,6.507a9.526,9.526,0,0,1,0-19.048,8.492,8.492,0,0,1,6.012,2.327l4.094-3.943a14.454,14.454,0,0,0-10.106-3.943,15.083,15.083,0,0,0,0,30.166c8.705,0,14.48-6.119,14.48-14.738a13.9,13.9,0,0,0-.237-2.5Z" transform="translate(1537 12384)" fill="#fff"/>
    <path id="Path_1874" data-name="Path 1874" d="M92.642,95.509h-4.31V91.2H84.023v4.309H79.714v4.31h4.309v4.309h4.309V99.819h4.31Z" transform="translate(1533 12384)" fill="#fff"/>
  </g>
</svg>
