<svg xmlns="http://www.w3.org/2000/svg" width="60" height="60" viewBox="0 0 60 60">
  <g id="Group_2304" data-name="Group 2304" transform="translate(-1613.205 -12386)">
    <path id="Path_1870" data-name="Path 1870" d="M136.205,30a30,30,0,1,1-30-30,30,30,0,0,1,30,30" transform="translate(1537 12386)" fill="#3e6dc1"/>
    <path id="Path_1871" data-name="Path 1871" d="M122.283,33.811V45.834H115.3V34.617c0-2.816-1.008-4.74-3.536-4.74a3.819,3.819,0,0,0-3.581,2.549,4.76,4.76,0,0,0-.231,1.7V45.834h-6.983s.093-19,0-20.966h6.983V27.84c-.014.023-.034.046-.046.068h.046V27.84a6.934,6.934,0,0,1,6.293-3.464c4.594,0,8.038,3,8.038,9.434M90.127,45.834h6.981V24.868H90.127Zm7.189-28.079a3.594,3.594,0,1,1-3.595-3.589,3.592,3.592,0,0,1,3.595,3.589" transform="translate(1537 12386)" fill="#fff"/>
  </g>
</svg>
