<svg xmlns="http://www.w3.org/2000/svg" width="25.838" height="8.927" viewBox="0 0 25.838 8.927">
  <path id="Path_1566" data-name="Path 1566" d="M38.762,71.643l.186-.122a.792.792,0,0,0-.906-1.3c-12.38,8.655-21.392.426-21.77.072a.792.792,0,0,0-1.089,1.151c.017.016.3.274.814.656L14.41,74.716a.794.794,0,0,0,.266,1.088.806.806,0,0,0,.413.115.8.8,0,0,0,.677-.379l1.551-2.555a19.013,19.013,0,0,0,3.313,1.6l-.764,2.555a.788.788,0,0,0,.528.984l.228.034a.793.793,0,0,0,.757-.565l.757-2.52a17.958,17.958,0,0,0,4.078.615v2.531a.791.791,0,1,0,1.583,0V75.67a18.625,18.625,0,0,0,4.09-.7l.974,2.569a.794.794,0,0,0,.74.51l.28-.05a.792.792,0,0,0,.461-1.02l-.949-2.5a23.5,23.5,0,0,0,4.036-1.964l1.282,1.712a.8.8,0,0,0,.633.318.775.775,0,0,0,.474-.159.792.792,0,0,0,.16-1.108Z" transform="translate(-14.296 -70.079)" fill="#c9c9c9"/>
</svg>
